<mxfile host="app.diagrams.net" agent="Mozilla/5.0 (Windows NT 10.0; Win64; x64) AppleWebKit/537.36 (KHTML, like Gecko) Chrome/128.0.0.0 Safari/537.36" version="24.7.14">
  <diagram name="Page-1" id="Uq2BC3oJX1P7q2fy9rag">
    <mxGraphModel dx="1432" dy="501" grid="1" gridSize="10" guides="1" tooltips="1" connect="1" arrows="1" fold="1" page="0" pageScale="1" pageWidth="850" pageHeight="1100" math="0" shadow="0">
      <root>
        <mxCell id="0" />
        <mxCell id="1" parent="0" />
        <mxCell id="xcm59Lb5H8kBxrCObnTR-3" value="" style="edgeStyle=orthogonalEdgeStyle;rounded=0;orthogonalLoop=1;jettySize=auto;html=1;" parent="1" source="xcm59Lb5H8kBxrCObnTR-1" target="xcm59Lb5H8kBxrCObnTR-2" edge="1">
          <mxGeometry relative="1" as="geometry" />
        </mxCell>
        <mxCell id="xcm59Lb5H8kBxrCObnTR-29" value="" style="edgeStyle=orthogonalEdgeStyle;rounded=0;orthogonalLoop=1;jettySize=auto;html=1;" parent="1" source="xcm59Lb5H8kBxrCObnTR-1" target="xcm59Lb5H8kBxrCObnTR-28" edge="1">
          <mxGeometry relative="1" as="geometry" />
        </mxCell>
        <mxCell id="xcm59Lb5H8kBxrCObnTR-1" value="Page loads" style="ellipse;whiteSpace=wrap;html=1;fillColor=#d5e8d4;strokeColor=#82b366;" parent="1" vertex="1">
          <mxGeometry x="-280" y="100" width="120" height="80" as="geometry" />
        </mxCell>
        <mxCell id="xcm59Lb5H8kBxrCObnTR-5" value="" style="edgeStyle=orthogonalEdgeStyle;rounded=0;orthogonalLoop=1;jettySize=auto;html=1;" parent="1" source="xcm59Lb5H8kBxrCObnTR-2" target="xcm59Lb5H8kBxrCObnTR-4" edge="1">
          <mxGeometry relative="1" as="geometry" />
        </mxCell>
        <mxCell id="xcm59Lb5H8kBxrCObnTR-2" value="Get current location" style="whiteSpace=wrap;html=1;fillColor=#6d8764;fontColor=#ffffff;strokeColor=#3A5431;" parent="1" vertex="1">
          <mxGeometry x="-120" y="110" width="120" height="60" as="geometry" />
        </mxCell>
        <mxCell id="xcm59Lb5H8kBxrCObnTR-7" style="edgeStyle=orthogonalEdgeStyle;rounded=0;orthogonalLoop=1;jettySize=auto;html=1;exitX=1;exitY=0.5;exitDx=0;exitDy=0;entryX=0;entryY=0.5;entryDx=0;entryDy=0;dashed=1;" parent="1" source="xcm59Lb5H8kBxrCObnTR-4" target="xcm59Lb5H8kBxrCObnTR-6" edge="1">
          <mxGeometry relative="1" as="geometry" />
        </mxCell>
        <mxCell id="xcm59Lb5H8kBxrCObnTR-12" value="bind&lt;div&gt;handler&lt;/div&gt;" style="edgeLabel;html=1;align=center;verticalAlign=middle;resizable=0;points=[];" parent="xcm59Lb5H8kBxrCObnTR-7" vertex="1" connectable="0">
          <mxGeometry x="-0.1851" y="-1" relative="1" as="geometry">
            <mxPoint as="offset" />
          </mxGeometry>
        </mxCell>
        <mxCell id="xcm59Lb5H8kBxrCObnTR-4" value="Display map on current location" style="shape=parallelogram;perimeter=parallelogramPerimeter;whiteSpace=wrap;html=1;fixedSize=1;fillColor=#dae8fc;strokeColor=#6c8ebf;" parent="1" vertex="1">
          <mxGeometry x="50" y="110" width="120" height="60" as="geometry" />
        </mxCell>
        <mxCell id="xcm59Lb5H8kBxrCObnTR-9" value="" style="edgeStyle=orthogonalEdgeStyle;rounded=0;orthogonalLoop=1;jettySize=auto;html=1;" parent="1" source="xcm59Lb5H8kBxrCObnTR-6" target="xcm59Lb5H8kBxrCObnTR-8" edge="1">
          <mxGeometry relative="1" as="geometry" />
        </mxCell>
        <mxCell id="xcm59Lb5H8kBxrCObnTR-6" value="User clicks on a specific point on the map" style="ellipse;whiteSpace=wrap;html=1;fillColor=#d5e8d4;strokeColor=#82b366;" parent="1" vertex="1">
          <mxGeometry x="240" y="100" width="120" height="80" as="geometry" />
        </mxCell>
        <mxCell id="xcm59Lb5H8kBxrCObnTR-11" style="edgeStyle=orthogonalEdgeStyle;rounded=0;orthogonalLoop=1;jettySize=auto;html=1;entryX=0.5;entryY=0;entryDx=0;entryDy=0;dashed=1;" parent="1" source="xcm59Lb5H8kBxrCObnTR-8" target="xcm59Lb5H8kBxrCObnTR-10" edge="1">
          <mxGeometry relative="1" as="geometry" />
        </mxCell>
        <mxCell id="xcm59Lb5H8kBxrCObnTR-13" value="bind handler" style="edgeLabel;html=1;align=center;verticalAlign=middle;resizable=0;points=[];" parent="xcm59Lb5H8kBxrCObnTR-11" vertex="1" connectable="0">
          <mxGeometry x="-0.4155" y="2" relative="1" as="geometry">
            <mxPoint x="-2" y="12" as="offset" />
          </mxGeometry>
        </mxCell>
        <mxCell id="xcm59Lb5H8kBxrCObnTR-8" value="Display workout&amp;nbsp;&lt;div&gt;form&lt;/div&gt;" style="shape=parallelogram;perimeter=parallelogramPerimeter;whiteSpace=wrap;html=1;fixedSize=1;fillColor=#dae8fc;strokeColor=#6c8ebf;" parent="1" vertex="1">
          <mxGeometry x="390" y="110" width="120" height="60" as="geometry" />
        </mxCell>
        <mxCell id="xcm59Lb5H8kBxrCObnTR-15" value="" style="edgeStyle=orthogonalEdgeStyle;rounded=0;orthogonalLoop=1;jettySize=auto;html=1;" parent="1" source="xcm59Lb5H8kBxrCObnTR-10" target="xcm59Lb5H8kBxrCObnTR-14" edge="1">
          <mxGeometry relative="1" as="geometry" />
        </mxCell>
        <mxCell id="xcm59Lb5H8kBxrCObnTR-27" value="" style="edgeStyle=orthogonalEdgeStyle;rounded=0;orthogonalLoop=1;jettySize=auto;html=1;" parent="1" source="xcm59Lb5H8kBxrCObnTR-10" target="xcm59Lb5H8kBxrCObnTR-26" edge="1">
          <mxGeometry relative="1" as="geometry" />
        </mxCell>
        <mxCell id="xcm59Lb5H8kBxrCObnTR-10" value="User submits the form" style="ellipse;whiteSpace=wrap;html=1;fillColor=#d5e8d4;strokeColor=#82b366;" parent="1" vertex="1">
          <mxGeometry x="390" y="230" width="120" height="80" as="geometry" />
        </mxCell>
        <mxCell id="xcm59Lb5H8kBxrCObnTR-21" style="edgeStyle=orthogonalEdgeStyle;rounded=0;orthogonalLoop=1;jettySize=auto;html=1;entryX=1;entryY=0.5;entryDx=0;entryDy=0;dashed=1;" parent="1" source="xcm59Lb5H8kBxrCObnTR-14" target="xcm59Lb5H8kBxrCObnTR-16" edge="1">
          <mxGeometry relative="1" as="geometry" />
        </mxCell>
        <mxCell id="xcm59Lb5H8kBxrCObnTR-22" value="bind&lt;div&gt;handler&lt;/div&gt;" style="edgeLabel;html=1;align=center;verticalAlign=middle;resizable=0;points=[];" parent="xcm59Lb5H8kBxrCObnTR-21" vertex="1" connectable="0">
          <mxGeometry x="-0.0128" y="1" relative="1" as="geometry">
            <mxPoint as="offset" />
          </mxGeometry>
        </mxCell>
        <mxCell id="xcm59Lb5H8kBxrCObnTR-14" value="Display workout on list" style="shape=parallelogram;perimeter=parallelogramPerimeter;whiteSpace=wrap;html=1;fixedSize=1;fillColor=#dae8fc;strokeColor=#6c8ebf;" parent="1" vertex="1">
          <mxGeometry x="240" y="240" width="120" height="60" as="geometry" />
        </mxCell>
        <mxCell id="xcm59Lb5H8kBxrCObnTR-20" value="" style="edgeStyle=orthogonalEdgeStyle;rounded=0;orthogonalLoop=1;jettySize=auto;html=1;" parent="1" source="xcm59Lb5H8kBxrCObnTR-16" target="xcm59Lb5H8kBxrCObnTR-19" edge="1">
          <mxGeometry relative="1" as="geometry" />
        </mxCell>
        <mxCell id="xcm59Lb5H8kBxrCObnTR-16" value="User clicks on workout list" style="ellipse;whiteSpace=wrap;html=1;fillColor=#d5e8d4;strokeColor=#82b366;" parent="1" vertex="1">
          <mxGeometry x="40" y="230" width="120" height="80" as="geometry" />
        </mxCell>
        <mxCell id="xcm59Lb5H8kBxrCObnTR-19" value="Focus on the workout location on the map" style="shape=parallelogram;perimeter=parallelogramPerimeter;whiteSpace=wrap;html=1;fixedSize=1;fillColor=#dae8fc;strokeColor=#6c8ebf;" parent="1" vertex="1">
          <mxGeometry x="-110" y="240" width="120" height="60" as="geometry" />
        </mxCell>
        <mxCell id="xcm59Lb5H8kBxrCObnTR-32" style="edgeStyle=orthogonalEdgeStyle;rounded=0;orthogonalLoop=1;jettySize=auto;html=1;exitX=1;exitY=0.5;exitDx=0;exitDy=0;entryX=0;entryY=1;entryDx=0;entryDy=0;startArrow=classic;startFill=1;endArrow=none;endFill=0;" parent="1" source="xcm59Lb5H8kBxrCObnTR-23" target="xcm59Lb5H8kBxrCObnTR-10" edge="1">
          <mxGeometry relative="1" as="geometry" />
        </mxCell>
        <mxCell id="xcm59Lb5H8kBxrCObnTR-23" value="Display workout on map" style="shape=parallelogram;perimeter=parallelogramPerimeter;whiteSpace=wrap;html=1;fixedSize=1;fillColor=#dae8fc;strokeColor=#6c8ebf;" parent="1" vertex="1">
          <mxGeometry x="220" y="341" width="120" height="60" as="geometry" />
        </mxCell>
        <mxCell id="xcm59Lb5H8kBxrCObnTR-26" value="Store workout on local storage" style="whiteSpace=wrap;html=1;fillColor=#6d8764;fontColor=#ffffff;strokeColor=#3A5431;" parent="1" vertex="1">
          <mxGeometry x="390" y="401" width="120" height="60" as="geometry" />
        </mxCell>
        <mxCell id="xcm59Lb5H8kBxrCObnTR-30" style="edgeStyle=orthogonalEdgeStyle;rounded=0;orthogonalLoop=1;jettySize=auto;html=1;entryX=0;entryY=0.5;entryDx=0;entryDy=0;" parent="1" source="xcm59Lb5H8kBxrCObnTR-28" target="xcm59Lb5H8kBxrCObnTR-23" edge="1">
          <mxGeometry relative="1" as="geometry" />
        </mxCell>
        <mxCell id="xcm59Lb5H8kBxrCObnTR-31" style="edgeStyle=orthogonalEdgeStyle;rounded=0;orthogonalLoop=1;jettySize=auto;html=1;exitX=0.75;exitY=0;exitDx=0;exitDy=0;entryX=0.25;entryY=1;entryDx=0;entryDy=0;" parent="1" source="xcm59Lb5H8kBxrCObnTR-28" edge="1">
          <mxGeometry relative="1" as="geometry">
            <mxPoint x="-160" y="354" as="sourcePoint" />
            <mxPoint x="270" y="298" as="targetPoint" />
            <Array as="points">
              <mxPoint x="-190" y="328" />
              <mxPoint x="270" y="328" />
            </Array>
          </mxGeometry>
        </mxCell>
        <mxCell id="xcm59Lb5H8kBxrCObnTR-28" value="Load workout from local storage" style="whiteSpace=wrap;html=1;fillColor=#6d8764;fontColor=#ffffff;strokeColor=#3A5431;" parent="1" vertex="1">
          <mxGeometry x="-280" y="341" width="120" height="60" as="geometry" />
        </mxCell>
      </root>
    </mxGraphModel>
  </diagram>
</mxfile>
